<?xml version="1.0" standalone="no"?>
<svg xmlns="http://www.w3.org/2000/svg" viewBox="0 0 1440 320">
  <!-- Define a linear gradient -->
  <defs>
    <linearGradient id="gradient" x1="0%" y1="0%" x2="100%" y2="0%">
      <stop offset="0%" style="stop-color:#168cfae6; stop-opacity:1" />
      <stop offset="100%" style="stop-color:#7bff7b; stop-opacity:1" />
    </linearGradient>
  </defs>
  
  <!-- Use the linear gradient as the fill for the path -->
  <path fill="url(#gradient)" d="M0,224L48,202.7C96,181,192,139,288,149.3C384,160,480,224,576,234.7C672,245,768,203,864,197.3C960,192,1056,224,1152,234.7C1248,245,1344,235,1392,229.3L1440,224L1440,0L1392,0C1344,0,1248,0,1152,0C1056,0,960,0,864,0C768,0,672,0,576,0C480,0,384,0,288,0C192,0,96,0,48,0L0,0Z"></path>
</svg>
